<svg xmlns="http://www.w3.org/2000/svg" viewBox="0 0 372.39 278.14"><defs><style>.cls-1{fill:#ed1c24;}.cls-2{fill:#231f20;}</style></defs><title>manamed-logo-stacked-black</title><g id="Layer_2" data-name="Layer 2"><g id="Layer_1-2" data-name="Layer 1"><path class="cls-1" d="M175.51,0a107.57,107.57,0,0,1,66,27.32l-8.91,8.93a95.11,95.11,0,0,0-57.05-23.64Zm74.54,35.89a107.71,107.71,0,0,1,27.33,66H264.76a95,95,0,0,0-23.63-57ZM277.38,114a107.67,107.67,0,0,1-27.33,66L241.13,171a95.13,95.13,0,0,0,23.63-57Zm-35.91,74.54a107.63,107.63,0,0,1-66,27.32V203.22a95,95,0,0,0,57.05-23.63ZM163.4,215.84a107.66,107.66,0,0,1-66-27.32l8.91-8.93a95.09,95.09,0,0,0,57.05,23.63Zm-74.53-35.9a107.61,107.61,0,0,1-27.33-66h12.6a95.15,95.15,0,0,0,23.65,57ZM61.54,101.85a107.66,107.66,0,0,1,27.33-66l8.92,8.94a95,95,0,0,0-23.65,57Zm35.9-74.53A107.6,107.6,0,0,1,163.4,0V12.61a95.16,95.16,0,0,0-57.05,23.64Zm78.07,23.47a57.08,57.08,0,0,1,30.05,12.45l-9,9a44.53,44.53,0,0,0-21.09-8.73Zm38.63,21a57.2,57.2,0,0,1,12.45,30h-12.7a44.49,44.49,0,0,0-8.72-21.07ZM226.59,114A57.26,57.26,0,0,1,214.14,144l-9-9A44.53,44.53,0,0,0,213.89,114Zm-21,38.62a57.24,57.24,0,0,1-30.05,12.45V152.37a44.84,44.84,0,0,0,21.09-8.73ZM163.4,165.05a57.24,57.24,0,0,1-30.05-12.45l9-9a44.84,44.84,0,0,0,21.08,8.73Zm-38.62-21A57.18,57.18,0,0,1,112.33,114H125a44.75,44.75,0,0,0,8.74,21.08Zm-12.45-42.19a57.12,57.12,0,0,1,12.45-30l9,9A44.72,44.72,0,0,0,125,101.85Zm21-38.61A57.08,57.08,0,0,1,163.4,50.79V63.48a44.64,44.64,0,0,0-21.08,8.73Zm42.16-37.87a82.4,82.4,0,0,1,48,19.89L214.6,54.2A70,70,0,0,0,175.51,38Zm56.6,28.46a82.58,82.58,0,0,1,19.9,48H239.37a69.87,69.87,0,0,0-16.19-39.07ZM252,114a82.5,82.5,0,0,1-19.9,48l-8.93-8.93A70,70,0,0,0,239.37,114Zm-28.47,56.59a82.34,82.34,0,0,1-48,19.89V177.83a69.76,69.76,0,0,0,39.09-16.19ZM163.4,190.46a82.33,82.33,0,0,1-48-19.89l8.93-8.93a69.79,69.79,0,0,0,39.09,16.19ZM106.8,162a82.36,82.36,0,0,1-19.89-48H99.55a69.88,69.88,0,0,0,16.18,39.09ZM86.91,101.85a82.44,82.44,0,0,1,19.89-48l8.93,9a69.79,69.79,0,0,0-16.18,39.07Zm28.47-56.59a82.4,82.4,0,0,1,48-19.89V38A70,70,0,0,0,124.31,54.2Z"/><path d="M63.53,112.66a4.56,4.56,0,0,1,0-9.12h75.18l10.73-32.78a4.56,4.56,0,0,1,8.84.74L169,123.72l11.8-39.65a4.55,4.55,0,0,1,8.86.62h0l5.14,33.8L201.55,106a4.61,4.61,0,0,1,4-2.41h68.5a4.56,4.56,0,0,1,0,9.12H208.28l-11.8,21.93a4.55,4.55,0,0,1-8.62-1.25l-4.13-27.18L172.55,143.7h0a4.48,4.48,0,0,1-3.45,3.16,4.54,4.54,0,0,1-5.35-3.54l-11-53.44-6.33,19.35a4.57,4.57,0,0,1-4.43,3.43Z"/><polygon points="0 278.14 0 232.93 11.97 232.93 24.79 266.43 25.33 269.13 25.89 266.43 37.7 232.93 49.67 232.93 49.67 278.14 40.87 278.14 40.87 244.26 28.53 278.14 21.06 278.14 8.79 244.26 8.79 278.14 0 278.14"/><path d="M72.85,259.19H84.44L78.89,245.1l-.21-1.69-.2,1.69ZM55.57,278.14l19.8-45.21h6.9l20,45.21h-9.7l-5.15-11.65H70.55l-5.29,11.65Z"/><polygon points="108.71 278.14 108.71 232.93 118.58 232.93 137.99 265.19 138.39 266.74 138.39 232.93 147.27 232.93 147.27 278.14 137.44 278.14 118.03 246.05 117.51 244.52 117.51 278.14 108.71 278.14"/><path d="M171.23,259.19h11.6l-5.56-14.09-.21-1.69-.19,1.69ZM154,278.14l19.81-45.21h6.88l20,45.21H191l-5.14-11.65H168.94l-5.29,11.65Z"/><polygon points="232.11 271.43 232.51 273.04 232.94 271.43 249.59 232.91 257 232.91 257 278.14 252.16 278.14 252.16 237.93 234.29 278.14 230.22 278.14 212.32 237.93 212.32 278.14 207.55 278.14 207.55 232.91 214.91 232.91 232.11 271.43"/><polygon points="268.27 278.14 268.27 232.91 294.32 232.91 294.32 237.01 273.03 237.01 273.03 252.88 293.57 252.88 293.57 256.99 273.03 256.99 273.03 274.02 294.32 274.02 294.32 278.14 268.27 278.14"/><path d="M309.09,274h6.16a64.2,64.2,0,0,0,7.42-.37,23.81,23.81,0,0,0,5.31-1.26,19,19,0,0,0,9.89-8.93,17.79,17.79,0,0,0,1.89-8.06,17,17,0,0,0-7.41-14.32,20.91,20.91,0,0,0-5.48-2.84,23.59,23.59,0,0,0-4.77-1c-1.67-.17-4-.26-6.85-.26h-6.16Zm-4.78,4.12V232.91h12.86q11.74,0,18.69,5.27a21.73,21.73,0,0,1,4.61,4.81,23.16,23.16,0,0,1,3,6,20.71,20.71,0,0,1,1,6.45,21.77,21.77,0,0,1-2,9.21,22.2,22.2,0,0,1-5.73,7.59,22.28,22.28,0,0,1-11.38,5.26,45,45,0,0,1-7.87.62Z"/><path class="cls-2" d="M358.71,225.2V227h-3.43v8.92h-2.12V227h-3.42V225.2Zm11.57,10.7-.39-6.29c0-.83,0-1.86-.08-3h-.12c-.28.94-.59,2.21-.91,3.19l-1.93,5.94h-2.2l-1.93-6.1-.74-3h-.13c0,1,0,2-.07,3l-.39,6.29h-2.05l.79-10.7h3.18l1.85,5.24c.25.82.44,1.61.71,2.71h.05c.26-1,.5-1.89.74-2.68l1.84-5.27h3.08l.81,10.7Z"/></g></g></svg>