<svg xmlns="http://www.w3.org/2000/svg" viewBox="0 0 66.73 65.46"><defs><style>.cls-1{fill:#e92629;}.cls-2{fill:#231f20;}</style></defs><title>Asset 2</title><g id="Layer_2" data-name="Layer 2"><g id="Layer_1-2" data-name="Layer 1"><g id="Layer_1-2-2" data-name="Layer 1-2"><g id="manamed-symbol"><path class="cls-1" d="M35.46,0a32.72,32.72,0,0,1,20,8.29L52.76,11a28.79,28.79,0,0,0-17.3-7.17ZM58.12,10.89a32.58,32.58,0,0,1,8.29,20H62.53a28.82,28.82,0,0,0-7.17-17.3Zm8.29,23.68a32.64,32.64,0,0,1-8.29,20l-2.71-2.71a28.85,28.85,0,0,0,7.17-17.3ZM55.47,57.18a32.59,32.59,0,0,1-20,8.28V61.64a28.85,28.85,0,0,0,17.3-7.17ZM31.79,65.46a32.57,32.57,0,0,1-20-8.28l2.71-2.71a28.82,28.82,0,0,0,17.3,7.17ZM9.18,54.58a32.64,32.64,0,0,1-8.29-20H4.72a28.79,28.79,0,0,0,7.17,17.3ZM.89,30.9a32.58,32.58,0,0,1,8.29-20l2.71,2.71A28.73,28.73,0,0,0,4.72,30.9ZM11.78,8.29A32.66,32.66,0,0,1,31.79,0V3.83A28.8,28.8,0,0,0,14.49,11Zm23.68,7.12a17.33,17.33,0,0,1,9.12,3.78L41.86,21.9a13.83,13.83,0,0,0-6.4-2.65Zm11.72,6.37A17.39,17.39,0,0,1,51,30.9H47.12a13.4,13.4,0,0,0-2.65-6.4ZM51,34.57a17.36,17.36,0,0,1-3.77,9.11L44.45,41a13.43,13.43,0,0,0,2.67-6.43ZM44.58,46.28a17.42,17.42,0,0,1-9.12,3.79V46.22a13.68,13.68,0,0,0,6.4-2.65ZM31.79,50.07a17.42,17.42,0,0,1-9.12-3.79l2.73-2.71a13.46,13.46,0,0,0,6.39,2.65ZM20.12,43.68a17.31,17.31,0,0,1-3.79-9.11h3.79A13.47,13.47,0,0,0,22.79,41ZM16.29,30.9a17.25,17.25,0,0,1,3.83-9.12l2.71,2.72a13.48,13.48,0,0,0-2.71,6.4Zm6.38-11.71a17.29,17.29,0,0,1,9.12-3.78v3.84A13.56,13.56,0,0,0,25.4,21.9ZM35.46,7.69a25,25,0,0,1,14.56,6l-2.7,2.7a21.24,21.24,0,0,0-11.86-4.9Zm17.17,8.64a25,25,0,0,1,6,14.57h-3.8A21.11,21.11,0,0,0,49.91,19Zm6,18.24a25.11,25.11,0,0,1-6,14.58l-2.72-2.72a21.21,21.21,0,0,0,4.92-11.86ZM50,51.74a25,25,0,0,1-14.56,6v-3.8A21.23,21.23,0,0,0,47.32,49Zm-18.23,6a25,25,0,0,1-14.57-6L19.93,49a21.19,21.19,0,0,0,11.86,4.91ZM14.63,49.15a24.89,24.89,0,0,1-6-14.58h3.83a21,21,0,0,0,4.9,11.86Zm-6-18.25a24.8,24.8,0,0,1,6-14.57L17.33,19a21,21,0,0,0-4.9,11.86Zm8.59-17.17a25.05,25.05,0,0,1,14.57-6v3.84a21.18,21.18,0,0,0-11.86,4.9Z"/><path class="cls-2" d="M1.5,34.16A1.38,1.38,0,0,1,0,32.9a1.36,1.36,0,0,1,1.25-1.49,1,1,0,0,1,.24,0H24.3l3.25-9.95a1.37,1.37,0,0,1,1.73-.89,1.39,1.39,0,0,1,.95,1.12l3.25,15.84,3.58-12a1.39,1.39,0,0,1,1.72-.94,1.43,1.43,0,0,1,1,1.13h0L41.33,36l2.05-3.8a1.38,1.38,0,0,1,1.22-.73H65.35a1.38,1.38,0,0,1,0,2.76h-20l-3.53,6.63a1.36,1.36,0,0,1-2.58-.37h0L38,32.21,34.56,43.58h0a1.38,1.38,0,0,1-1.72.92,1.36,1.36,0,0,1-1-1L28.55,27.26l-1.9,5.87a1.39,1.39,0,0,1-1.35,1Z"/></g></g></g></g></svg>