<svg xmlns="http://www.w3.org/2000/svg" viewBox="0 0 245.07 65.46"><defs><style>.cls-1{fill:#e92629;}.cls-2{fill:#231f20;}</style></defs><title>manamed-logo-black</title><g id="Layer_2" data-name="Layer 2"><g id="Layer_1-2" data-name="Layer 1"><path class="cls-1" d="M35.34,0a32.69,32.69,0,0,1,20,8.29L52.64,11a28.78,28.78,0,0,0-17.3-7.17ZM58,10.89a32.57,32.57,0,0,1,8.29,20H62.41a28.76,28.76,0,0,0-7.17-17.3Zm8.29,23.68a32.6,32.6,0,0,1-8.29,20l-2.71-2.71a28.78,28.78,0,0,0,7.17-17.3ZM55.35,57.18a32.62,32.62,0,0,1-20,8.28V61.64a28.84,28.84,0,0,0,17.3-7.17ZM31.67,65.46a32.62,32.62,0,0,1-20-8.28l2.71-2.71a28.87,28.87,0,0,0,17.3,7.17ZM9.06,54.58a32.66,32.66,0,0,1-8.29-20H4.6a28.78,28.78,0,0,0,7.17,17.3ZM.77,30.9a32.63,32.63,0,0,1,8.29-20l2.71,2.71A28.76,28.76,0,0,0,4.6,30.9ZM11.66,8.29A32.69,32.69,0,0,1,31.67,0V3.83A28.81,28.81,0,0,0,14.37,11Zm23.68,7.12a17.31,17.31,0,0,1,9.12,3.78L41.74,21.9a13.77,13.77,0,0,0-6.4-2.65Zm11.72,6.37a17.34,17.34,0,0,1,3.77,9.12H47a13.32,13.32,0,0,0-2.65-6.4Zm3.77,12.79a17.31,17.31,0,0,1-3.77,9.11L44.33,41A13.4,13.4,0,0,0,47,34.57ZM44.46,46.28a17.4,17.4,0,0,1-9.12,3.79V46.22a13.66,13.66,0,0,0,6.4-2.65ZM31.67,50.07a17.4,17.4,0,0,1-9.12-3.79l2.73-2.71a13.5,13.5,0,0,0,6.39,2.65ZM20,43.68a17.33,17.33,0,0,1-3.79-9.11H20A13.59,13.59,0,0,0,22.67,41ZM16.17,30.9A17.37,17.37,0,0,1,20,21.78l2.71,2.72A13.51,13.51,0,0,0,20,30.9Zm6.38-11.71a17.31,17.31,0,0,1,9.12-3.78v3.84a13.6,13.6,0,0,0-6.39,2.65ZM35.34,7.69a25,25,0,0,1,14.56,6l-2.7,2.7a21.24,21.24,0,0,0-11.86-4.9Zm17.17,8.64a25,25,0,0,1,6,14.57H54.71A21.12,21.12,0,0,0,49.79,19Zm6,18.24a25.07,25.07,0,0,1-6,14.58l-2.72-2.72a21.18,21.18,0,0,0,4.92-11.86ZM49.9,51.74a24.94,24.94,0,0,1-14.56,6V53.94A21.18,21.18,0,0,0,47.2,49Zm-18.23,6a25,25,0,0,1-14.57-6L19.81,49a21.18,21.18,0,0,0,11.86,4.91ZM14.51,49.15a24.94,24.94,0,0,1-6-14.58h3.83a21.09,21.09,0,0,0,4.9,11.86Zm-6-18.25a24.85,24.85,0,0,1,6-14.57L17.21,19a21,21,0,0,0-4.9,11.86ZM17.1,13.73a25.06,25.06,0,0,1,14.57-6v3.84a21.24,21.24,0,0,0-11.86,4.9Z"/><path class="cls-2" d="M1.38,34.16a1.38,1.38,0,1,1,0-2.75h22.8l3.25-9.95a1.38,1.38,0,0,1,2.68.23l3.25,15.84,3.58-12a1.4,1.4,0,0,1,1.72-.94,1.43,1.43,0,0,1,1,1.13h0l1.55,10.25,2.05-3.8a1.39,1.39,0,0,1,1.22-.73H65.23a1.38,1.38,0,1,1,0,2.76h-20L41.7,40.83a1.36,1.36,0,0,1-1,.78,1.38,1.38,0,0,1-1.58-1.16l-1.25-8.24L34.44,43.58h0a1.38,1.38,0,0,1-2.67-.11L28.43,27.26l-1.9,5.87a1.39,1.39,0,0,1-1.35,1Z"/><polygon class="cls-2" points="76.13 43.96 76.13 21.8 82 21.8 88.29 38.22 88.55 39.55 88.83 38.22 94.62 21.8 100.49 21.8 100.49 43.96 96.17 43.96 96.17 27.36 90.12 43.96 86.46 43.96 80.45 27.36 80.45 43.96 76.13 43.96"/><path class="cls-2" d="M111.85,34.68h5.69l-2.73-6.92-.1-.82-.1.82ZM103.38,44l9.71-22.16h3.38L126.28,44h-4.75L119,38.25h-8.28L108.13,44Z"/><polygon class="cls-2" points="129.44 43.96 129.44 21.8 134.28 21.8 143.79 37.62 143.99 38.38 143.99 21.8 148.34 21.8 148.34 43.96 143.53 43.96 134.01 28.24 133.76 27.47 133.76 43.96 129.44 43.96"/><path class="cls-2" d="M160.1,34.68h5.68l-2.72-6.92-.1-.82-.1.82ZM151.63,44l9.71-22.16h3.38L174.53,44h-4.75l-2.53-5.71H159L156.38,44Z"/><polygon class="cls-2" points="189.95 40.68 190.14 41.47 190.36 40.68 198.52 21.79 202.16 21.79 202.16 43.96 199.78 43.96 199.78 24.26 191.02 43.96 189.03 43.96 180.25 24.26 180.25 43.96 177.91 43.96 177.91 21.79 181.52 21.79 189.95 40.68"/><polygon class="cls-2" points="207.68 43.96 207.68 21.79 220.45 21.79 220.45 23.8 210.01 23.8 210.01 31.58 220.09 31.58 220.09 33.6 210.01 33.6 210.01 41.95 220.45 41.95 220.45 43.96 207.68 43.96"/><path class="cls-2" d="M227.7,42h3a30.68,30.68,0,0,0,3.64-.19,11.17,11.17,0,0,0,2.6-.61,9.28,9.28,0,0,0,2.18-1.22,9,9,0,0,0,2.67-3.17,8.66,8.66,0,0,0,.93-3.95,8.36,8.36,0,0,0-3.63-7,10.49,10.49,0,0,0-2.7-1.39,11.45,11.45,0,0,0-2.33-.48q-1.23-.12-3.36-.12h-3Zm-2.33,2V21.79h6.29c3.84,0,6.89.86,9.17,2.59a10.31,10.31,0,0,1,2.26,2.35,11.37,11.37,0,0,1,1.49,2.95,10.43,10.43,0,0,1,.49,3.17,10.59,10.59,0,0,1-1,4.51,10.94,10.94,0,0,1-2.8,3.72,11.65,11.65,0,0,1-2.55,1.67,12.22,12.22,0,0,1-3,.92,23.49,23.49,0,0,1-3.87.29Z"/></g></g></svg>