<svg id="Layer_1" data-name="Layer 1" xmlns="http://www.w3.org/2000/svg" viewBox="0 0 241.83 82.59"><defs><style>.cls-1{fill:#dddcdc;}.cls-2{fill:#dddcdc;}.cls-3{fill:#dddcdc;}.cls-4{fill:#dddcdc;}</style></defs><title>rubik-logo</title><path class="cls-1" d="M277.05,386.14v27.63c0,8-2.25,15-12.79,15s-12.8-7-12.8-15V386.14H240.8v28.69c0,13.65,7.11,22.93,23.46,22.93s23.46-9.28,23.46-22.93V386.14Zm-27.33,9.09h-7.29v-7.29h7.29Z" transform="translate(-185.03 -355.34)"/><path class="cls-2" d="M212.4,401.08c12.91-1.39,21.45-11,21.45-22.51a21.84,21.84,0,0,0-11.73-19.19c-7.11-3.63-15.64-3.73-23.58-3.73H185v80.4h11.14V402h4.62l26.3,34H240.6Zm-18.24,32.83h-7.29v-7.3h7.29Zm5.56-40.19h-3.55V364.61h3c11,0,24.29,1.81,24.29,14.39,0,12.8-12.32,14.72-23.7,14.72" transform="translate(-185.03 -355.34)"/><path class="cls-3" d="M325.67,384.74a25.39,25.39,0,0,0-18.84,8.43V355.34H296.17v80.71h10.66v-6.54a25.38,25.38,0,0,0,18.84,8.42c14.25,0,25.8-11.9,25.8-26.59s-11.55-26.6-25.8-26.6m-20.58,49.17H297.8v-7.3h7.29Zm20.58-4.6a18,18,0,1,1,17.43-18,17.71,17.71,0,0,1-17.43,18" transform="translate(-185.03 -355.34)"/><path class="cls-1" d="M400.79,406.83l23.7-20.69h-14.1l-20.85,18.77V355.34H378.87v80.71h10.67V416.64l3.66-3.3L413,436.05h13.87Zm-13,27.08h-7.3v-7.3h7.3Z" transform="translate(-185.03 -355.34)"/><path class="cls-4" d="M358.33,436.05H369V386.14H358.33ZM360,387.94h7.29v7.3H360Z" transform="translate(-185.03 -355.34)"/><path class="cls-4" d="M363.67,358.58c-4,0-7.35,3-7.35,6.72s3.32,6.5,7.35,6.5,7.34-2.87,7.34-6.5-3.31-6.72-7.34-6.72" transform="translate(-185.03 -355.34)"/></svg>